<?xml version="1.0" encoding="UTF-8" standalone="no"?>
<svg
   xmlns:dc="http://purl.org/dc/elements/1.1/"
   xmlns:cc="http://creativecommons.org/ns#"
   xmlns:rdf="http://www.w3.org/1999/02/22-rdf-syntax-ns#"
   xmlns:svg="http://www.w3.org/2000/svg"
   xmlns="http://www.w3.org/2000/svg"
   xmlns:sodipodi="http://sodipodi.sourceforge.net/DTD/sodipodi-0.dtd"
   xmlns:inkscape="http://www.inkscape.org/namespaces/inkscape"
   id="svg2"
   xml:space="preserve"
   viewBox="0 0 287.80677 454.32376"
   version="1.1"
   inkscape:version="0.91 r13725"
   sodipodi:docname="1368918160.svg"
   width="287.80676"
   height="454.32376"
   inkscape:export-filename="/home/me/Documents/CoderDojo/pyenguin/beispiele/mond_landung/bilder/rakete.png"
   inkscape:export-xdpi="6.25"
   inkscape:export-ydpi="6.25"><sodipodi:namedview
     pagecolor="#ffffff"
     bordercolor="#666666"
     borderopacity="1"
     objecttolerance="10"
     gridtolerance="10"
     guidetolerance="10"
     inkscape:pageopacity="0"
     inkscape:pageshadow="2"
     inkscape:window-width="1680"
     inkscape:window-height="1008"
     id="namedview167"
     showgrid="false"
     inkscape:zoom="0.8942294"
     inkscape:cx="41.514029"
     inkscape:cy="279.72144"
     inkscape:window-x="1920"
     inkscape:window-y="0"
     inkscape:window-maximized="1"
     inkscape:current-layer="svg2"
     fit-margin-top="0"
     fit-margin-left="0"
     fit-margin-right="0"
     fit-margin-bottom="0" /><defs
     id="defs6"><clipPath
       id="clipPath16"><path
         id="path18"
         d="M 0,0 800,0 800,600 0,600 0,0 Z"
         inkscape:connector-curvature="0" /></clipPath><clipPath
       id="clipPath28"><path
         id="path30"
         d="m 233.23,277.42 335.48,0 0,-145.16 -335.48,0 0,145.16 z"
         inkscape:connector-curvature="0" /></clipPath><clipPath
       id="clipPath32"><path
         id="path34"
         d="m 233.23,132.26 335.48,0 0,145.16 -335.48,0 0,-145.16 z"
         inkscape:connector-curvature="0" /></clipPath><clipPath
       id="clipPath52"><path
         id="path54"
         d="m 507.61,388.52 17.831,0 0,-17.832 -17.831,0 0,17.832 z"
         inkscape:connector-curvature="0" /></clipPath><clipPath
       id="clipPath56"><path
         id="path58"
         d="m 507.61,370.69 17.831,0 0,17.832 -17.831,0 0,-17.832 z"
         inkscape:connector-curvature="0" /></clipPath><clipPath
       id="clipPath76"><path
         id="path78"
         d="m 285.43,413.65 17.831,0 0,-17.831 -17.831,0 0,17.831 z"
         inkscape:connector-curvature="0" /></clipPath><clipPath
       id="clipPath80"><path
         id="path82"
         d="m 285.43,395.82 17.831,0 0,17.831 -17.831,0 0,-17.831 z"
         inkscape:connector-curvature="0" /></clipPath><clipPath
       id="clipPath100"><path
         id="path102"
         d="m 528.51,357.24 11.682,0 0,-11.682 -11.682,0 0,11.682 z"
         inkscape:connector-curvature="0" /></clipPath><clipPath
       id="clipPath104"><path
         id="path106"
         d="m 528.51,345.56 11.683,0 0,11.682 -11.683,0 0,-11.682 z"
         inkscape:connector-curvature="0" /></clipPath><clipPath
       id="clipPath124"><path
         id="path126"
         d="m 273.75,370.52 11.683,0 0,-11.683 -11.683,0 0,11.683 z"
         inkscape:connector-curvature="0" /></clipPath><clipPath
       id="clipPath128"><path
         id="path130"
         d="m 273.75,358.83 11.682,0 0,11.683 -11.682,0 0,-11.683 z"
         inkscape:connector-curvature="0" /></clipPath><clipPath
       id="clipPath148"><path
         id="path150"
         d="m 503.09,321 9.031,0 0,-9.031 -9.031,0 0,9.031 z"
         inkscape:connector-curvature="0" /></clipPath><clipPath
       id="clipPath152"><path
         id="path154"
         d="m 503.09,311.97 9.031,0 0,9.03 -9.031,0 0,-9.03 z"
         inkscape:connector-curvature="0" /></clipPath><clipPath
       id="clipPath176"><path
         id="path178"
         d="m 380.45,290.36 42.023,0 0,-86.543 -42.023,0 0,86.543 z"
         inkscape:connector-curvature="0" /></clipPath><clipPath
       id="clipPath180"><path
         id="path182"
         d="m 380.46,203.82 42.021,0 0,86.543 -42.021,0 0,-86.543 z"
         inkscape:connector-curvature="0" /></clipPath><clipPath
       id="clipPath184"><path
         id="path186"
         d="m 380.46,290.36 42.022,0 0,-86.543 -42.022,0 0,86.543 z"
         inkscape:connector-curvature="0" /></clipPath><clipPath
       id="clipPath188"><path
         id="path190"
         d="m 380.46,290.36 42.022,0 0,-86.543 -42.022,0 0,86.543 z"
         inkscape:connector-curvature="0" /></clipPath><linearGradient
       id="linearGradient196"
       gradientUnits="userSpaceOnUse"
       gradientTransform="matrix(-3.8e-6,86.543,-86.543,-3.8e-6,401.44,203.81)"><stop
         id="stop198"
         stop-color="#231f20"
         offset="0" /><stop
         id="stop200"
         stop-color="#fff"
         offset="1" /></linearGradient><mask
       id="mask202"><g
         id="g204"><g
           id="g206"
           clip-path="url(#clipPath184)"><path
             id="path208"
             d="m 380.46,290.36 42.021,0 0,-86.543 -42.021,0 0,86.543 z"
             inkscape:connector-curvature="0" /><g
             id="g210"><g
               id="g214"><g
                 id="g216"
                 clip-path="url(#clipPath188)"><g
                   id="g218"><g
                     id="g220"><g
                       id="g222"><g
                         id="g224"><path
                           id="path226"
                           d="m 380.46,290.36 42.021,0 0,-86.543 -42.021,0 0,86.543 z"
                           inkscape:connector-curvature="0"
                           style="fill:url(#linearGradient196)" /></g></g></g></g></g></g></g></g></g></mask><clipPath
       id="clipPath228"><path
         id="path230"
         d="m 380.46,290.36 42.022,0 0,-86.543 -42.022,0 0,86.543 z"
         inkscape:connector-curvature="0" /></clipPath><linearGradient
       id="linearGradient236"
       gradientUnits="userSpaceOnUse"
       gradientTransform="matrix(-3.8e-6,86.543,-86.543,-3.8e-6,401.44,203.81)"><stop
         id="stop238"
         stop-color="#fff"
         offset="0" /><stop
         id="stop240"
         stop-color="#fff"
         offset="1" /></linearGradient><clipPath
       id="clipPath280"><path
         id="path282"
         d="m 376.94,297.56 49.046,0 0,-7.704 -49.046,0 0,7.704 z"
         inkscape:connector-curvature="0" /></clipPath><clipPath
       id="clipPath284"><path
         id="path286"
         d="m 376.94,289.86 49.046,0 0,7.703 -49.046,0 0,-7.703 z"
         inkscape:connector-curvature="0" /></clipPath><clipPath
       id="clipPath344"><path
         id="path346"
         d="m 353.81,496.26 62.813,0 0,-201.62 -62.813,0 0,201.62 z"
         inkscape:connector-curvature="0" /></clipPath><clipPath
       id="clipPath348"><path
         id="path350"
         d="m 353.81,294.65 62.813,0 0,201.61 -62.813,0 0,-201.61 z"
         inkscape:connector-curvature="0" /></clipPath></defs><g
     id="g4540"
     transform="matrix(1.6496943,0,0,1.6496943,-205.50342,-204.83906)"><g
       transform="matrix(1.25,0,0,-1.25,-289.83468,744.49539)"
       id="g72" /><g
       transform="matrix(1.25,0,0,-1.25,-289.83468,744.49539)"
       id="g96" /><g
       id="g168"
       transform="matrix(1.25,0,0,-1.25,131.57782,303.83289)"><path
         id="path170"
         d="m 0,0 c 4.222,9.415 17.499,22.846 18.062,23.413 0.489,0.495 1.206,0.677 1.874,0.492 0.666,-0.189 1.177,-0.725 1.334,-1.402 l 17.657,-76.414 c 0.14,-0.604 -0.023,-1.237 -0.436,-1.695 -0.412,-0.467 -1.023,-0.707 -1.638,-0.625 -0.007,0 -0.903,0.1 -2.363,0.1 -6.41,0 -21.854,-1.854 -26.794,-19.029 -0.22,-0.762 -0.885,-1.31 -1.675,-1.374 -0.052,-0.002 -0.105,-0.002 -0.157,-0.002 -0.727,0 -1.4,0.415 -1.718,1.083 C -11.901,-41.758 -4.287,-9.562 0,0"
         inkscape:connector-curvature="0"
         style="fill:#e67000" /></g><g
       id="g272"
       transform="matrix(1.25,0,0,-1.25,241.77782,373.80789)"><path
         id="path274"
         d="m 0,0 c -0.439,0.361 -1.014,0.51 -1.575,0.399 -4.53,-0.891 -12.063,-1.95 -22.251,-1.95 -10.189,0 -17.724,1.059 -22.25,1.95 -0.559,0.111 -1.136,-0.034 -1.577,-0.399 -0.441,-0.364 -0.696,-0.902 -0.696,-1.469 l 0,-10.318 c 0,-0.938 0.68,-1.734 1.604,-1.881 0.513,-0.082 12.685,-2.011 22.919,-2.011 10.232,0 22.404,1.929 22.919,2.011 0.922,0.147 1.604,0.943 1.604,1.881 l 0,10.318 C 0.697,-0.902 0.442,-0.364 0,0"
         inkscape:connector-curvature="0"
         style="fill:#bf5d00" /></g><g
       transform="matrix(1.25,0,0,-1.25,-289.83468,744.49539)"
       id="g276"><g
         id="g288"><g
           id="g290"
           clip-path="url(#clipPath280)"
           style="opacity:0.2"><g
             id="g292"><g
               id="g294"
               clip-path="url(#clipPath284)"><g
                 id="g296"
                 transform="translate(425.29,297.12)"><path
                   id="path298"
                   d="m 0,0 c -0.439,0.36 -1.014,0.51 -1.575,0.397 -4.53,-0.891 -12.063,-1.952 -22.251,-1.952 -10.189,0 -17.724,1.061 -22.25,1.952 -0.559,0.115 -1.136,-0.037 -1.577,-0.397 -0.441,-0.363 -0.696,-0.903 -0.696,-1.47 l 0,-5.717 c 0,0.572 0.255,1.111 0.696,1.47 0.441,0.364 1.018,0.515 1.577,0.402 4.526,-0.892 12.061,-1.953 22.25,-1.953 10.188,0 17.721,1.061 22.251,1.953 0.561,0.11 1.136,-0.039 1.575,-0.402 0.442,-0.359 0.697,-0.898 0.697,-1.47 l 0,5.717 C 0.697,-0.903 0.442,-0.363 0,0"
                   inkscape:connector-curvature="0"
                   style="fill:#231f20" /></g></g></g></g></g></g><g
       id="g300"
       transform="matrix(1.25,0,0,-1.25,211.99032,124.17039)"><path
         id="path302"
         d="m 0,0 c -9.34,0 -47.653,-48.961 -47.653,-106.66 0,-55.951 16.9,-91.826 17.071,-92.204 0.214,-0.468 0.61,-0.835 1.099,-1.004 0.419,-0.15 10.525,-3.651 29.483,-3.651 18.955,0 29.062,3.501 29.485,3.651 0.486,0.169 0.884,0.536 1.095,1.004 0.173,0.378 17.072,36.253 17.072,92.204 C 47.652,-48.961 9.339,0 0,0"
         inkscape:connector-curvature="0"
         style="fill:#ff7c00" /></g><g
       id="g304"
       transform="matrix(1.25,0,0,-1.25,246.87782,165.09539)"><path
         id="path306"
         d="M 0,0 C -11.005,20.058 -23.084,32.742 -27.902,32.742 -32.723,32.742 -44.8,20.058 -55.805,0 -52.679,-0.92 -43.538,-3.163 -27.902,-3.163 -12.267,-3.163 -3.125,-0.92 0,0"
         inkscape:connector-curvature="0"
         style="fill:#bf5d00" /></g><g
       id="g308"
       transform="matrix(1.25,0,0,-1.25,211.99032,255.92039)"><path
         id="path310"
         d="m 0,0 c -8.13,0 -14.745,6.614 -14.745,14.744 0,8.131 6.615,14.745 14.745,14.745 8.13,0 14.743,-6.614 14.743,-14.745 C 14.743,6.614 8.13,0 0,0"
         inkscape:connector-curvature="0"
         style="fill:#ffffff" /></g><g
       id="g312"
       transform="matrix(1.25,0,0,-1.25,211.99032,217.80789)"><path
         id="path314"
         d="m 0,0 c -8.682,0 -15.745,-7.063 -15.745,-15.746 0,-8.681 7.063,-15.743 15.745,-15.743 8.681,0 15.743,7.062 15.743,15.743 C 15.743,-7.063 8.681,0 0,0 m 0,-2 c 7.59,0 13.743,-6.153 13.743,-13.746 0,-7.589 -6.153,-13.743 -13.743,-13.743 -7.592,0 -13.745,6.154 -13.745,13.743 C -13.745,-8.153 -7.592,-2 0,-2"
         inkscape:connector-curvature="0"
         style="fill:#e66e00" /></g><g
       id="g316"
       transform="matrix(1.25,0,0,-1.25,211.99032,310.39539)"><path
         id="path318"
         d="m 0,0 c -5.506,0 -9.985,4.479 -9.985,9.983 0,5.506 4.479,9.985 9.985,9.985 5.505,0 9.983,-4.479 9.983,-9.985 C 9.983,4.479 5.505,0 0,0"
         inkscape:connector-curvature="0"
         style="fill:#ffffff" /></g><g
       id="g320"
       transform="matrix(1.25,0,0,-1.25,211.99032,284.18289)"><path
         id="path322"
         d="m 0,0 c -6.057,0 -10.985,-4.928 -10.985,-10.985 0,-6.057 4.928,-10.983 10.985,-10.983 6.057,0 10.983,4.926 10.983,10.983 C 10.983,-4.928 6.057,0 0,0 m 0,-2 c 4.963,0 8.983,-4.023 8.983,-8.985 0,-4.962 -4.02,-8.983 -8.983,-8.983 -4.962,0 -8.985,4.021 -8.985,8.983 C -8.985,-6.023 -4.962,-2 0,-2"
         inkscape:connector-curvature="0"
         style="fill:#e66e00" /></g><g
       id="g324"
       transform="matrix(1.25,0,0,-1.25,198.15282,240.82039)"><path
         id="path326"
         d="m 0,0 c 0,7.592 6.153,13.746 13.744,13.746 3.115,0 5.976,-1.048 8.282,-2.794 -2.51,3.312 -6.473,5.46 -10.948,5.46 -7.592,0 -13.745,-6.154 -13.745,-13.746 0,-4.475 2.149,-8.44 5.463,-10.95 C 1.048,-5.979 0,-3.115 0,0"
         inkscape:connector-curvature="0"
         style="fill:#e6e7e8" /></g><g
       id="g328"
       transform="matrix(1.25,0,0,-1.25,204.10282,301.24539)"><path
         id="path330"
         d="m 0,0 c 0,4.962 4.023,8.985 8.984,8.985 1.797,0 3.464,-0.54 4.866,-1.448 -1.6,2.471 -4.369,4.114 -7.532,4.114 -4.962,0 -8.985,-4.023 -8.985,-8.985 0,-3.163 1.645,-5.935 4.118,-7.535 C 0.541,-3.463 0,-1.799 0,0"
         inkscape:connector-curvature="0"
         style="fill:#e6e7e8" /></g><g
       id="g332"
       transform="matrix(1.25,0,0,-1.25,291.96532,303.83289)"><path
         id="path334"
         d="m 0,0 c -4.22,9.415 -17.497,22.846 -18.062,23.413 -0.487,0.495 -1.206,0.677 -1.873,0.492 -0.666,-0.189 -1.176,-0.725 -1.333,-1.402 l -17.658,-76.414 c -0.139,-0.604 0.024,-1.237 0.437,-1.695 0.411,-0.467 1.023,-0.707 1.638,-0.625 0.009,0 0.903,0.1 2.364,0.1 6.408,0 21.851,-1.854 26.795,-19.029 0.215,-0.762 0.883,-1.31 1.671,-1.374 0.052,-0.002 0.106,-0.002 0.159,-0.002 0.729,0 1.397,0.415 1.719,1.083 C 11.901,-41.758 4.287,-9.562 0,0"
         inkscape:connector-curvature="0"
         style="fill:#ff7c00" /></g><g
       id="g336"
       transform="matrix(1.25,0,0,-1.25,254.47782,180.49539)"><path
         id="path338"
         d="m 0,0 c 6.474,-16.294 9.882,-50.928 6.101,-74.519 3.557,-3.721 13.237,-14.248 16.731,-22.039 4.141,-9.24 11.382,-39.592 -2.592,-72.017 0.815,-1.587 1.531,-3.333 2.102,-5.303 0.219,-0.762 0.884,-1.309 1.675,-1.374 0.052,-0.005 0.102,-0.005 0.155,-0.005 0.728,0 1.4,0.418 1.718,1.086 16.048,33.695 8.435,65.892 4.145,75.456 -3.492,7.791 -13.177,18.316 -16.731,22.039 0.264,4.832 0.413,9.847 0.413,15.035 0,22.718 -5.942,44.085 -13.717,61.64"
         inkscape:connector-curvature="0"
         style="fill:#ff9633" /></g><g
       transform="matrix(1.25,0,0,-1.25,-289.83468,744.49539)"
       id="g340"><g
         id="g352"><g
           id="g354"
           clip-path="url(#clipPath344)"
           style="opacity:0.2"><g
             id="g356"><g
               id="g358"
               clip-path="url(#clipPath348)"><g
                 id="g360"
                 transform="translate(365.62,377.8)"><path
                   id="path362"
                   d="m 0,0 c 0,57.692 38.313,106.66 47.654,106.66 0.876,0 2.014,-0.438 3.349,-1.269 -6.51,8.311 -12.246,13.078 -15.16,13.078 -9.34,0 -47.653,-48.961 -47.653,-106.66 0,-55.951 16.9,-91.826 17.071,-92.204 0.214,-0.468 0.61,-0.835 1.099,-1.004 0.201,-0.071 2.617,-0.9 7.112,-1.751 C 8.464,-69.135 0,-39.607 0,-0.001"
                   inkscape:connector-curvature="0"
                   style="fill:#231f20" /></g></g></g></g></g></g></g><metadata
     id="metadata165"><rdf:RDF><cc:Work><dc:format>image/svg+xml</dc:format><dc:type
           rdf:resource="http://purl.org/dc/dcmitype/StillImage" /><cc:license
           rdf:resource="http://creativecommons.org/publicdomain/zero/1.0/" /><dc:publisher><cc:Agent
             rdf:about="http://openclipart.org/"><dc:title>Openclipart</dc:title></cc:Agent></dc:publisher><dc:title>Rocket</dc:title><dc:date>2013-05-18T19:02:40</dc:date><dc:description>A cartoon rocket by Alejandro Vizio and Aerolab. Used with permission, original file available here: http://dribbble.com/shots/1073470-Rocket-FREE-VECTOR</dc:description><dc:source>https://openclipart.org/detail/178310/rocket-by-williamtheaker-178310</dc:source><dc:creator><cc:Agent><dc:title>williamtheaker</dc:title></cc:Agent></dc:creator><dc:subject><rdf:Bag><rdf:li>astronaut</rdf:li><rdf:li>blast</rdf:li><rdf:li>blastoff</rdf:li><rdf:li>cosmonaut</rdf:li><rdf:li>flat</rdf:li><rdf:li>rocket</rdf:li><rdf:li>space</rdf:li><rdf:li>spaceship</rdf:li><rdf:li>taikonaut</rdf:li></rdf:Bag></dc:subject></cc:Work><cc:License
         rdf:about="http://creativecommons.org/publicdomain/zero/1.0/"><cc:permits
           rdf:resource="http://creativecommons.org/ns#Reproduction" /><cc:permits
           rdf:resource="http://creativecommons.org/ns#Distribution" /><cc:permits
           rdf:resource="http://creativecommons.org/ns#DerivativeWorks" /></cc:License></rdf:RDF></metadata></svg>